<?xml version="1.0" encoding="UTF-8"?> <svg xmlns="http://www.w3.org/2000/svg" xmlns:xlink="http://www.w3.org/1999/xlink" id="Grupo_872" data-name="Grupo 872" width="86.394" height="86.197" viewBox="0 0 86.394 86.197"><defs><linearGradient id="linear-gradient" x1="0.106" y1="0.77" x2="0.928" y2="0.374" gradientUnits="objectBoundingBox"><stop offset="0" stop-color="#5a26e6"></stop><stop offset="1" stop-color="#950095"></stop></linearGradient></defs><g id="Grupo_638" data-name="Grupo 638" transform="translate(12.237 30.068)"><path id="Trazado_710" data-name="Trazado 710" d="M446.212,343.987l.861,2.36c.3-.108.576-.206.851-.306l15.977-5.8c.452-.164.452-.164.616.285q.812,2.222,1.622,4.444c.042.114.077.229.121.362a2.458,2.458,0,0,1-.223.112q-8.744,3.178-17.49,6.351a8.193,8.193,0,0,1-5.107.277,4.438,4.438,0,0,1-3.166-2.917q-1.888-5.236-3.812-10.458a4.685,4.685,0,0,1,2.858-6.288q7.711-2.846,15.454-5.6a7.35,7.35,0,0,1,5.242-.044,4.392,4.392,0,0,1,2.658,2.587c.826,2.155,1.6,4.329,2.4,6.5.136.37.268.741.415,1.146Zm9.883-11.375-12.393,4.5.574,1.555,12.385-4.5Z" transform="translate(-436.101 -326.295)" fill="#fff"></path><path id="Trazado_711" data-name="Trazado 711" d="M494.249,346.352l.809-2.2c.076-.208-.1-.213-.215-.254q-2.022-.741-4.048-1.474-7.356-2.668-14.711-5.338c-.074-.027-.143-.065-.24-.11.247-.682.487-1.348.73-2.014.6-1.643,1.237-3.271,1.788-4.929a5.207,5.207,0,0,1,5.3-3.708,8.992,8.992,0,0,1,3.26.6q7.453,2.707,14.907,5.415a4.908,4.908,0,0,1,3.245,3.358,4.61,4.61,0,0,1-.178,2.88q-1.724,4.777-3.474,9.545a16.474,16.474,0,0,1-.671,1.7,4.49,4.49,0,0,1-3.34,2.37,8.867,8.867,0,0,1-4.981-.509q-8.557-3.115-17.119-6.219c-.25-.09-.24-.2-.164-.408.572-1.545,1.142-3.092,1.695-4.644.1-.268.2-.31.46-.214q7.036,2.566,14.077,5.116Zm3.371-9.236-12.391-4.5-.566,1.561,12.387,4.5Z" transform="translate(-443.313 -326.3)" fill="#fff"></path></g><path id="Trazado_712" data-name="Trazado 712" d="M464.286,293.194a39.228,39.228,0,1,1-15.3,3.081,39.145,39.145,0,0,1,15.3-3.081m0-3.872a43.1,43.1,0,1,0,43.2,43.1,43.148,43.148,0,0,0-43.2-43.1Z" transform="translate(-421.089 -289.322)" fill="url(#linear-gradient)"></path></svg> 